<svg width="24" height="24" viewBox="0 0 24 24" fill="none" xmlns="http://www.w3.org/2000/svg">
<path d="M22.5 10H22V9C22 6.243 19.757 4 17 4H13V2C13 1.447 12.552 1 12 1C11.448 1 11 1.447 11 2V4H7C4.243 4 2 6.243 2 9V10H1.5C0.673 10 0 10.673 0 11.5V14.5C0 15.327 0.673 16 1.5 16H2V17C2 19.757 4.243 22 7 22H17C19.757 22 22 19.757 22 17V16H22.5C23.327 16 24 15.327 24 14.5V11.5C24 10.673 23.327 10 22.5 10ZM20 17C20 18.654 18.654 20 17 20H7C5.346 20 4 18.654 4 17V9C4 7.346 5.346 6 7 6H17C18.654 6 20 7.346 20 9V17ZM10 10.5C10 11.328 9.328 12 8.5 12C7.672 12 7 11.328 7 10.5C7 9.672 7.672 9 8.5 9C9.328 9 10 9.672 10 10.5ZM15.5 12C14.672 12 14 11.328 14 10.5C14 9.672 14.672 9 15.5 9C16.328 9 17 9.672 17 10.5C17 11.328 16.328 12 15.5 12ZM9 16C9 16.553 8.552 17 8 17H7C6.448 17 6 16.553 6 16C6 15.447 6.448 15 7 15H8C8.552 15 9 15.447 9 16ZM14 16C14 16.553 13.553 17 13 17H11C10.448 17 10 16.553 10 16C10 15.447 10.448 15 11 15H13C13.553 15 14 15.447 14 16ZM18 16C18 16.553 17.553 17 17 17H16C15.447 17 15 16.553 15 16C15 15.447 15.447 15 16 15H17C17.553 15 18 15.447 18 16Z" fill="#B026FF"/>
</svg>
