<svg width="17" height="17" viewBox="0 0 17 17" fill="none" xmlns="http://www.w3.org/2000/svg">
<path d="M8.5 2.5C8.66329 2.50002 8.82089 2.55997 8.94291 2.66848C9.06494 2.77698 9.1429 2.9265 9.162 3.08867L9.16667 3.16667V13.8333C9.16648 14.0033 9.10141 14.1667 8.98477 14.2902C8.86812 14.4138 8.7087 14.4882 8.53907 14.4981C8.36944 14.5081 8.20241 14.4529 8.07211 14.3438C7.94181 14.2348 7.85807 14.0801 7.838 13.9113L7.83333 13.8333V3.16667C7.83333 2.98986 7.90357 2.82029 8.0286 2.69526C8.15362 2.57024 8.32319 2.5 8.5 2.5ZM5.83333 4.5C6.01014 4.5 6.17971 4.57024 6.30474 4.69526C6.42976 4.82029 6.5 4.98986 6.5 5.16667V11.8333C6.5 12.0101 6.42976 12.1797 6.30474 12.3047C6.17971 12.4298 6.01014 12.5 5.83333 12.5C5.65652 12.5 5.48695 12.4298 5.36193 12.3047C5.2369 12.1797 5.16667 12.0101 5.16667 11.8333V5.16667C5.16667 4.98986 5.2369 4.82029 5.36193 4.69526C5.48695 4.57024 5.65652 4.5 5.83333 4.5ZM11.1667 4.5C11.3435 4.5 11.513 4.57024 11.6381 4.69526C11.7631 4.82029 11.8333 4.98986 11.8333 5.16667V11.8333C11.8333 12.0101 11.7631 12.1797 11.6381 12.3047C11.513 12.4298 11.3435 12.5 11.1667 12.5C10.9899 12.5 10.8203 12.4298 10.6953 12.3047C10.5702 12.1797 10.5 12.0101 10.5 11.8333V5.16667C10.5 4.98986 10.5702 4.82029 10.6953 4.69526C10.8203 4.57024 10.9899 4.5 11.1667 4.5ZM3.16667 6.5C3.34348 6.5 3.51305 6.57024 3.63807 6.69526C3.7631 6.82029 3.83333 6.98986 3.83333 7.16667V9.83333C3.83333 10.0101 3.7631 10.1797 3.63807 10.3047C3.51305 10.4298 3.34348 10.5 3.16667 10.5C2.98986 10.5 2.82029 10.4298 2.69526 10.3047C2.57024 10.1797 2.5 10.0101 2.5 9.83333V7.16667C2.5 6.98986 2.57024 6.82029 2.69526 6.69526C2.82029 6.57024 2.98986 6.5 3.16667 6.5ZM13.8333 6.5C13.9966 6.50002 14.1542 6.55997 14.2762 6.66848C14.3983 6.77698 14.4762 6.9265 14.4953 7.08867L14.5 7.16667V9.83333C14.4998 10.0033 14.4347 10.1667 14.3181 10.2902C14.2015 10.4138 14.042 10.4882 13.8724 10.4981C13.7028 10.5081 13.5357 10.4529 13.4054 10.3438C13.2751 10.2348 13.1914 10.0801 13.1713 9.91133L13.1667 9.83333V7.16667C13.1667 6.98986 13.2369 6.82029 13.3619 6.69526C13.487 6.57024 13.6565 6.5 13.8333 6.5Z" fill="#B026FF"/>
</svg>
