<svg width="20" height="20" viewBox="0 0 20 20" fill="none" xmlns="http://www.w3.org/2000/svg">
<path fill-rule="evenodd" clip-rule="evenodd" d="M3.5875 9.68755L6.05 12.1501C6.14211 12.2359 6.21599 12.3394 6.26723 12.4544C6.31847 12.5694 6.34602 12.6935 6.34824 12.8194C6.35046 12.9453 6.3273 13.0703 6.28015 13.187C6.233 13.3038 6.16282 13.4098 6.0738 13.4988C5.98477 13.5879 5.87873 13.6581 5.762 13.7052C5.64526 13.7524 5.52023 13.7755 5.39435 13.7733C5.26847 13.7711 5.14433 13.7435 5.02933 13.6923C4.91433 13.641 4.81083 13.5672 4.725 13.4751L0.6625 9.41255L0 8.75005L0.6625 8.08755L4.725 4.02505C4.90272 3.85945 5.13778 3.7693 5.38065 3.77358C5.62353 3.77787 5.85526 3.87626 6.02703 4.04803C6.19879 4.21979 6.29718 4.45152 6.30147 4.6944C6.30575 4.93728 6.2156 5.17233 6.05 5.35005L3.5875 7.81255H15.9375C17.0149 7.81255 18.0483 8.24056 18.8101 9.00243C19.572 9.7643 20 10.7976 20 11.8751C20 12.9525 19.572 13.9858 18.8101 14.7477C18.0483 15.5095 17.0149 15.9376 15.9375 15.9376H13.4375C13.1889 15.9376 12.9504 15.8388 12.7746 15.663C12.5988 15.4871 12.5 15.2487 12.5 15.0001C12.5 14.7514 12.5988 14.513 12.7746 14.3371C12.9504 14.1613 13.1889 14.0626 13.4375 14.0626H15.9375C16.5177 14.0626 17.0741 13.8321 17.4843 13.4218C17.8945 13.0116 18.125 12.4552 18.125 11.8751C18.125 11.2949 17.8945 10.7385 17.4843 10.3283C17.0741 9.91802 16.5177 9.68755 15.9375 9.68755H3.5875Z" fill="white"/>
</svg>
