<svg width="16" height="17" viewBox="0 0 16 17" fill="none" xmlns="http://www.w3.org/2000/svg">
<path d="M5.33333 6.83337C5.11232 6.83337 4.90036 6.92117 4.74408 7.07745C4.5878 7.23373 4.5 7.44569 4.5 7.66671C4.5 7.88772 4.5878 8.09968 4.74408 8.25596C4.90036 8.41224 5.11232 8.50004 5.33333 8.50004C5.55435 8.50004 5.76631 8.41224 5.92259 8.25596C6.07887 8.09968 6.16667 7.88772 6.16667 7.66671C6.16667 7.44569 6.07887 7.23373 5.92259 7.07745C5.76631 6.92117 5.55435 6.83337 5.33333 6.83337ZM8 6.83337C7.77899 6.83337 7.56702 6.92117 7.41074 7.07745C7.25446 7.23373 7.16667 7.44569 7.16667 7.66671C7.16667 7.88772 7.25446 8.09968 7.41074 8.25596C7.56702 8.41224 7.77899 8.50004 8 8.50004C8.22101 8.50004 8.43298 8.41224 8.58926 8.25596C8.74554 8.09968 8.83333 7.88772 8.83333 7.66671C8.83333 7.44569 8.74554 7.23373 8.58926 7.07745C8.43298 6.92117 8.22101 6.83337 8 6.83337ZM9.83333 7.66671C9.83333 7.44569 9.92113 7.23373 10.0774 7.07745C10.2337 6.92117 10.4457 6.83337 10.6667 6.83337C10.8877 6.83337 11.0996 6.92117 11.2559 7.07745C11.4122 7.23373 11.5 7.44569 11.5 7.66671C11.5 7.88772 11.4122 8.09968 11.2559 8.25596C11.0996 8.41224 10.8877 8.50004 10.6667 8.50004C10.4457 8.50004 10.2337 8.41224 10.0774 8.25596C9.92113 8.09968 9.83333 7.88772 9.83333 7.66671Z" fill="#1E1E1E"/>
<path fill-rule="evenodd" clip-rule="evenodd" d="M11.4447 2.15305C9.25504 1.96085 7.05393 1.94966 4.86251 2.11957L4.70564 2.13212C3.69807 2.21041 2.75643 2.67771 2.06928 3.44043C1.38213 4.20316 1.00021 5.205 1 6.24532V13.3729C1.00009 13.4814 1.02751 13.588 1.07956 13.6824C1.13162 13.7767 1.20654 13.8556 1.29702 13.9112C1.38749 13.9668 1.49043 13.9974 1.59579 13.9998C1.70115 14.0023 1.80533 13.9766 1.89816 13.9252L5.07628 12.167C5.22445 12.085 5.39007 12.0421 5.55828 12.0423H12.8541C13.7743 12.0423 14.5627 11.3644 14.7277 10.433C15.0626 8.54419 15.0886 6.61103 14.8057 4.71302L14.7228 4.15315C14.6491 3.65854 14.416 3.20379 14.0611 2.86199C13.7061 2.52019 13.2498 2.31117 12.7655 2.26853L11.4447 2.15305ZM4.95517 3.37152C7.08161 3.20605 9.21752 3.21669 11.3423 3.40332L12.6623 3.51965C13.098 3.55814 13.4524 3.89875 13.5182 4.34396L13.6019 4.90299C13.8632 6.66324 13.8385 8.45597 13.5288 10.2079C13.5005 10.3706 13.4175 10.5178 13.2942 10.6237C13.171 10.7296 13.0155 10.7874 12.855 10.787H5.55828C5.18891 10.7871 4.82531 10.8814 4.5 11.0615L2.21923 12.3235V6.24532C2.21927 5.52158 2.48485 4.82457 2.96279 4.29385C3.44072 3.76313 4.09574 3.43789 4.79667 3.38324L4.95517 3.37152Z" fill="#1E1E1E"/>
</svg>
