<svg width="17" height="17" viewBox="0 0 17 17" fill="none" xmlns="http://www.w3.org/2000/svg">
<path d="M8.50033 9.16663V3.16663M5.16699 9.83329H3.83366C3.65685 9.83329 3.48728 9.90353 3.36225 10.0286C3.23723 10.1536 3.16699 10.3231 3.16699 10.5V13.1666C3.16699 13.3434 3.23723 13.513 3.36225 13.638C3.48728 13.7631 3.65685 13.8333 3.83366 13.8333H13.167C13.3438 13.8333 13.5134 13.7631 13.6384 13.638C13.7634 13.513 13.8337 13.3434 13.8337 13.1666V10.5C13.8337 10.3231 13.7634 10.1536 13.6384 10.0286C13.5134 9.90353 13.3438 9.83329 13.167 9.83329H11.8337M11.167 6.49996L8.50033 9.83329L5.83366 6.49996M11.8337 11.8333H11.8403" stroke="white" stroke-width="1.5" stroke-linecap="round" stroke-linejoin="round"/>
</svg>
