<svg width="16" height="17" viewBox="0 0 16 17" fill="none" xmlns="http://www.w3.org/2000/svg">
<path d="M8 15.1666H14.6667" stroke="#1E1E1E" stroke-width="1.5" stroke-linecap="round"/>
<path d="M9 5.5C9 5.76522 8.89464 6.01957 8.70711 6.20711C8.51957 6.39464 8.26522 6.5 8 6.5C7.73478 6.5 7.48043 6.39464 7.29289 6.20711C7.10536 6.01957 7 5.76522 7 5.5C7 5.23478 7.10536 4.98043 7.29289 4.79289C7.48043 4.60536 7.73478 4.5 8 4.5C8.26522 4.5 8.51957 4.60536 8.70711 4.79289C8.89464 4.98043 9 5.23478 9 5.5ZM9 11.5C9 11.7652 8.89464 12.0196 8.70711 12.2071C8.51957 12.3946 8.26522 12.5 8 12.5C7.73478 12.5 7.48043 12.3946 7.29289 12.2071C7.10536 12.0196 7 11.7652 7 11.5C7 11.2348 7.10536 10.9804 7.29289 10.7929C7.48043 10.6054 7.73478 10.5 8 10.5C8.26522 10.5 8.51957 10.6054 8.70711 10.7929C8.89464 10.9804 9 11.2348 9 11.5ZM5 7.5C5.26522 7.5 5.51957 7.60536 5.70711 7.79289C5.89464 7.98043 6 8.23478 6 8.5C6 8.76522 5.89464 9.01957 5.70711 9.20711C5.51957 9.39464 5.26522 9.5 5 9.5C4.73478 9.5 4.48043 9.39464 4.29289 9.20711C4.10536 9.01957 4 8.76522 4 8.5C4 8.23478 4.10536 7.98043 4.29289 7.79289C4.48043 7.60536 4.73478 7.5 5 7.5ZM11 7.5C11.2652 7.5 11.5196 7.60536 11.7071 7.79289C11.8946 7.98043 12 8.23478 12 8.5C12 8.76522 11.8946 9.01957 11.7071 9.20711C11.5196 9.39464 11.2652 9.5 11 9.5C10.7348 9.5 10.4804 9.39464 10.2929 9.20711C10.1054 9.01957 10 8.76522 10 8.5C10 8.23478 10.1054 7.98043 10.2929 7.79289C10.4804 7.60536 10.7348 7.5 11 7.5Z" stroke="#1E1E1E" stroke-width="1.5"/>
<path d="M4.66634 2.72532C5.67931 2.13914 6.82933 1.83139 7.99967 1.83332C11.6817 1.83332 14.6663 4.81799 14.6663 8.49999C14.6663 12.182 11.6817 15.1667 7.99967 15.1667C4.31767 15.1667 1.33301 12.182 1.33301 8.49999C1.33301 7.28599 1.65767 6.14666 2.22501 5.16666" stroke="#1E1E1E" stroke-width="1.5" stroke-linecap="round"/>
</svg>
