<svg width="17" height="17" viewBox="0 0 17 17" fill="none" xmlns="http://www.w3.org/2000/svg">
<path d="M8.5 15.1666C7.66667 15.1666 6.88622 15.0084 6.15867 14.6919C5.43111 14.3755 4.79778 13.9477 4.25867 13.4086C3.71956 12.8695 3.29178 12.2362 2.97533 11.5086C2.65889 10.7811 2.50044 10.0004 2.5 9.16662C2.5 8.97773 2.564 8.8195 2.692 8.69195C2.82 8.56439 2.97822 8.50039 3.16667 8.49995C3.35511 8.4995 3.51356 8.5635 3.642 8.69195C3.77044 8.82039 3.83422 8.97862 3.83333 9.16662C3.83333 10.4666 4.28622 11.5695 5.192 12.4753C6.09778 13.3811 7.20044 13.8337 8.5 13.8333C9.79956 13.8328 10.9024 13.3802 11.8087 12.4753C12.7149 11.5704 13.1676 10.4675 13.1667 9.16662C13.1658 7.86573 12.7131 6.76306 11.8087 5.85862C10.9042 4.95417 9.80133 4.50128 8.5 4.49995H8.4L8.96667 5.06662C9.1 5.19995 9.164 5.3555 9.15867 5.53328C9.15333 5.71106 9.08933 5.86662 8.96667 5.99995C8.83333 6.13328 8.67511 6.20284 8.492 6.20862C8.30889 6.21439 8.15044 6.15039 8.01667 6.01662L6.3 4.29995C6.16667 4.16662 6.1 4.01106 6.1 3.83328C6.1 3.6555 6.16667 3.49995 6.3 3.36662L8.01667 1.64995C8.15 1.51662 8.30844 1.45262 8.492 1.45795C8.67556 1.46328 8.83378 1.53284 8.96667 1.66662C9.08889 1.79995 9.15289 1.9555 9.15867 2.13328C9.16444 2.31106 9.10044 2.46662 8.96667 2.59995L8.4 3.16662H8.5C9.33333 3.16662 10.114 3.32506 10.842 3.64195C11.57 3.95884 12.2033 4.38662 12.742 4.92528C13.2807 5.46395 13.7084 6.09728 14.0253 6.82528C14.3422 7.55328 14.5004 8.33373 14.5 9.16662C14.4996 9.9995 14.3413 10.7802 14.0253 11.5086C13.7093 12.2371 13.2816 12.8704 12.742 13.4086C12.2024 13.9468 11.5691 14.3746 10.842 14.6919C10.1149 15.0093 9.33422 15.1675 8.5 15.1666Z" fill="#B026FF"/>
</svg>
