<svg width="17" height="17" viewBox="0 0 17 17" fill="none" xmlns="http://www.w3.org/2000/svg">
<path d="M14.5 11.2267V7.89871C14.5 5.03871 14.5 3.61004 13.6213 2.72137C12.7427 1.83337 11.328 1.83337 8.5 1.83337C5.672 1.83337 4.25733 1.83337 3.37867 2.72137C2.5 3.60937 2.5 5.04004 2.5 7.89871V11.2274C2.5 13.2914 2.5 14.324 2.98933 14.7747C3.22267 14.99 3.51733 15.1254 3.83133 15.1614C4.48933 15.2367 5.258 14.5567 6.79467 13.1974C7.47467 12.5967 7.814 12.296 8.20667 12.2174C8.4 12.1774 8.6 12.1774 8.79333 12.2174C9.18667 12.296 9.526 12.5967 10.2053 13.1974C11.742 14.5567 12.5107 15.2367 13.1687 15.1607C13.482 15.1254 13.7773 14.99 14.0107 14.7747C14.5 14.324 14.5 13.2914 14.5 11.2267Z" stroke="white" stroke-width="1.5"/>
<path d="M10.5 4.5H6.5" stroke="white" stroke-width="1.5" stroke-linecap="round"/>
</svg>
