<svg width="16" height="16" viewBox="0 0 16 16" fill="none" xmlns="http://www.w3.org/2000/svg">
<path d="M13.9696 2.67003C14.0018 2.58073 14.0079 2.4841 13.9872 2.39145C13.9665 2.29879 13.9199 2.21394 13.8528 2.14681C13.7857 2.07968 13.7008 2.03305 13.6082 2.01237C13.5155 1.99169 13.4189 1.99782 13.3296 2.03003L2.32957 6.03003C2.23438 6.06455 2.15191 6.12715 2.09307 6.20955C2.03424 6.29196 2.00181 6.39029 2.00007 6.49153C1.99834 6.59277 2.02738 6.69215 2.08336 6.77652C2.13934 6.86089 2.21962 6.92628 2.31357 6.96403L6.74657 8.73703L9.64657 5.64703L10.3536 6.35403L7.37357 9.53003L9.03557 13.686C9.07323 13.78 9.13853 13.8604 9.22284 13.9164C9.30715 13.9725 9.40649 14.0016 9.50773 14C9.60897 13.9984 9.70733 13.9661 9.78979 13.9073C9.87226 13.8486 9.93495 13.7662 9.96957 13.671L13.9696 2.67003Z" fill="white"/>
<path d="M13.9696 2.67003C14.0018 2.58073 14.0079 2.4841 13.9872 2.39145C13.9665 2.29879 13.9199 2.21394 13.8528 2.14681C13.7857 2.07968 13.7008 2.03305 13.6082 2.01237C13.5155 1.99169 13.4189 1.99782 13.3296 2.03003L2.32957 6.03003C2.23438 6.06455 2.15191 6.12715 2.09307 6.20955C2.03424 6.29196 2.00181 6.39029 2.00007 6.49153C1.99834 6.59277 2.02738 6.69215 2.08336 6.77652C2.13934 6.86089 2.21962 6.92628 2.31357 6.96403L6.74657 8.73703L9.64657 5.64703L10.3536 6.35403L7.37357 9.53003L9.03557 13.686C9.07323 13.78 9.13853 13.8604 9.22284 13.9164C9.30715 13.9725 9.40649 14.0016 9.50773 14C9.60897 13.9984 9.70733 13.9661 9.78979 13.9073C9.87226 13.8486 9.93495 13.7662 9.96957 13.671L13.9696 2.67003Z" fill="white"/>
</svg>
