<svg width="16" height="17" viewBox="0 0 16 17" fill="none" xmlns="http://www.w3.org/2000/svg">
<g clip-path="url(#clip0_6_22)">
<path d="M6.247 8.84301C5.917 8.73301 5.917 8.26701 6.247 8.15701L8.184 7.51201C8.6098 7.37003 8.99668 7.13083 9.31398 6.81337C9.63127 6.4959 9.87026 6.10889 10.012 5.68301L10.657 3.74701C10.767 3.41701 11.233 3.41701 11.343 3.74701L11.988 5.68401C12.13 6.10981 12.3692 6.49669 12.6866 6.81398C13.0041 7.13128 13.3911 7.37027 13.817 7.51201L15.753 8.15701C15.8253 8.18072 15.8882 8.22665 15.9328 8.28825C15.9774 8.34984 16.0014 8.42395 16.0014 8.50001C16.0014 8.57606 15.9774 8.65017 15.9328 8.71176C15.8882 8.77336 15.8253 8.81929 15.753 8.84301L13.816 9.48801C13.3903 9.62988 13.0035 9.86892 12.6862 10.1862C12.3689 10.5035 12.1299 10.8903 11.988 11.316L11.343 13.253C11.3193 13.3253 11.2734 13.3882 11.2118 13.4328C11.1502 13.4774 11.0761 13.5014 11 13.5014C10.9239 13.5014 10.8498 13.4774 10.7882 13.4328C10.7266 13.3882 10.6807 13.3253 10.657 13.253L10.012 11.316C9.87013 10.8903 9.63108 10.5035 9.31379 10.1862C8.9965 9.86892 8.60969 9.62988 8.184 9.48801L6.247 8.84301ZM1.148 12.706C1.10469 12.6917 1.06701 12.664 1.0403 12.6271C1.01359 12.5901 0.999211 12.5456 0.999211 12.5C0.999211 12.4544 1.01359 12.4099 1.0403 12.3729C1.06701 12.336 1.10469 12.3083 1.148 12.294L2.31 11.907C2.828 11.734 3.234 11.328 3.407 10.81L3.794 9.64801C3.80834 9.6047 3.83596 9.56702 3.87294 9.54031C3.90992 9.5136 3.95438 9.49922 4 9.49922C4.04562 9.49922 4.09007 9.5136 4.12705 9.54031C4.16404 9.56702 4.19166 9.6047 4.206 9.64801L4.593 10.81C4.67811 11.0655 4.82156 11.2976 5.01197 11.488C5.20238 11.6784 5.43452 11.8219 5.69 11.907L6.852 12.294C6.8953 12.3083 6.93299 12.336 6.9597 12.3729C6.98641 12.4099 7.00079 12.4544 7.00079 12.5C7.00079 12.5456 6.98641 12.5901 6.9597 12.6271C6.93299 12.664 6.8953 12.6917 6.852 12.706L5.69 13.093C5.43452 13.1781 5.20238 13.3216 5.01197 13.512C4.82156 13.7024 4.67811 13.9345 4.593 14.19L4.206 15.352C4.19166 15.3953 4.16404 15.433 4.12705 15.4597C4.09007 15.4864 4.04562 15.5008 4 15.5008C3.95438 15.5008 3.90992 15.4864 3.87294 15.4597C3.83596 15.433 3.80834 15.3953 3.794 15.352L3.407 14.19C3.32188 13.9345 3.17843 13.7024 2.98802 13.512C2.79761 13.3216 2.56547 13.1781 2.31 13.093L1.148 12.706ZM0.098998 5.63701C0.0705243 5.62714 0.0458339 5.60864 0.0283596 5.58408C0.0108853 5.55953 0.00149536 5.53014 0.00149536 5.50001C0.00149536 5.46987 0.0108853 5.44048 0.0283596 5.41593C0.0458339 5.39138 0.0705243 5.37288 0.098998 5.36301L0.872998 5.10501C1.219 4.99001 1.49 4.71901 1.605 4.37301L1.863 3.59901C1.87287 3.57053 1.89137 3.54584 1.91592 3.52837C1.94047 3.51089 1.96986 3.5015 2 3.5015C2.03013 3.5015 2.05952 3.51089 2.08407 3.52837C2.10863 3.54584 2.12713 3.57053 2.137 3.59901L2.395 4.37301C2.45172 4.54352 2.54741 4.69846 2.67448 4.82552C2.80155 4.95259 2.95649 5.04828 3.127 5.10501L3.901 5.36301C3.92947 5.37288 3.95416 5.39138 3.97164 5.41593C3.98911 5.44048 3.9985 5.46987 3.9985 5.50001C3.9985 5.53014 3.98911 5.55953 3.97164 5.58408C3.95416 5.60864 3.92947 5.62714 3.901 5.63701L3.127 5.89501C2.95649 5.95173 2.80155 6.04742 2.67448 6.17449C2.54741 6.30156 2.45172 6.4565 2.395 6.62701L2.137 7.40001C2.12713 7.42848 2.10863 7.45317 2.08407 7.47064C2.05952 7.48812 2.03013 7.49751 2 7.49751C1.96986 7.49751 1.94047 7.48812 1.91592 7.47064C1.89137 7.45317 1.87287 7.42848 1.863 7.40001L1.605 6.62601C1.49 6.28001 1.219 6.00901 0.872998 5.89401L0.099998 5.63701L0.098998 5.63701Z" fill="white"/>
</g>
<defs>
<clipPath id="clip0_6_22">
<rect width="16" height="16" fill="white" transform="translate(0 16.5) rotate(-90)"/>
</clipPath>
</defs>
</svg>
