<svg width="16" height="17" viewBox="0 0 16 17" fill="none" xmlns="http://www.w3.org/2000/svg">
<g clip-path="url(#clip0_6_32)">
<path d="M6.24703 8.84301C5.91703 8.73301 5.91703 8.26701 6.24703 8.15701L8.18403 7.51201C8.60983 7.37003 8.99671 7.13083 9.31401 6.81337C9.6313 6.4959 9.87029 6.10889 10.012 5.68301L10.657 3.74701C10.767 3.41701 11.233 3.41701 11.343 3.74701L11.988 5.68401C12.13 6.10981 12.3692 6.49669 12.6867 6.81398C13.0041 7.13128 13.3911 7.37027 13.817 7.51201L15.753 8.15701C15.8253 8.18072 15.8882 8.22665 15.9328 8.28825C15.9774 8.34984 16.0015 8.42395 16.0015 8.50001C16.0015 8.57606 15.9774 8.65017 15.9328 8.71176C15.8882 8.77336 15.8253 8.81929 15.753 8.84301L13.816 9.48801C13.3903 9.62988 13.0035 9.86892 12.6862 10.1862C12.3689 10.5035 12.1299 10.8903 11.988 11.316L11.343 13.253C11.3193 13.3253 11.2734 13.3882 11.2118 13.4328C11.1502 13.4774 11.0761 13.5014 11 13.5014C10.924 13.5014 10.8499 13.4774 10.7883 13.4328C10.7267 13.3882 10.6807 13.3253 10.657 13.253L10.012 11.316C9.87016 10.8903 9.63111 10.5035 9.31382 10.1862C8.99653 9.86892 8.60972 9.62988 8.18403 9.48801L6.24703 8.84301ZM1.14803 12.706C1.10472 12.6917 1.06704 12.664 1.04033 12.6271C1.01362 12.5901 0.999241 12.5456 0.999241 12.5C0.999241 12.4544 1.01362 12.4099 1.04033 12.3729C1.06704 12.336 1.10472 12.3083 1.14803 12.294L2.31003 11.907C2.82803 11.734 3.23403 11.328 3.40703 10.81L3.79403 9.64801C3.80837 9.6047 3.83599 9.56702 3.87297 9.54031C3.90995 9.5136 3.95441 9.49922 4.00003 9.49922C4.04565 9.49922 4.0901 9.5136 4.12709 9.54031C4.16407 9.56702 4.19169 9.6047 4.20603 9.64801L4.59303 10.81C4.67814 11.0655 4.82159 11.2976 5.012 11.488C5.20241 11.6784 5.43455 11.8219 5.69003 11.907L6.85203 12.294C6.89533 12.3083 6.93302 12.336 6.95973 12.3729C6.98644 12.4099 7.00082 12.4544 7.00082 12.5C7.00082 12.5456 6.98644 12.5901 6.95973 12.6271C6.93302 12.664 6.89533 12.6917 6.85203 12.706L5.69003 13.093C5.43455 13.1781 5.20241 13.3216 5.012 13.512C4.82159 13.7024 4.67814 13.9345 4.59303 14.19L4.20603 15.352C4.19169 15.3953 4.16407 15.433 4.12709 15.4597C4.0901 15.4864 4.04565 15.5008 4.00003 15.5008C3.95441 15.5008 3.90995 15.4864 3.87297 15.4597C3.83599 15.433 3.80837 15.3953 3.79403 15.352L3.40703 14.19C3.32191 13.9345 3.17846 13.7024 2.98805 13.512C2.79764 13.3216 2.5655 13.1781 2.31003 13.093L1.14803 12.706ZM0.0990285 5.63701C0.0705548 5.62714 0.0458644 5.60864 0.0283901 5.58408C0.0109158 5.55953 0.00152588 5.53014 0.00152588 5.50001C0.00152588 5.46987 0.0109158 5.44048 0.0283901 5.41593C0.0458644 5.39138 0.0705548 5.37288 0.0990285 5.36301L0.873029 5.10501C1.21903 4.99001 1.49003 4.71901 1.60503 4.37301L1.86303 3.59901C1.8729 3.57053 1.8914 3.54584 1.91595 3.52837C1.9405 3.51089 1.96989 3.5015 2.00003 3.5015C2.03016 3.5015 2.05955 3.51089 2.08411 3.52837C2.10866 3.54584 2.12716 3.57053 2.13703 3.59901L2.39503 4.37301C2.45175 4.54352 2.54745 4.69846 2.67451 4.82552C2.80158 4.95259 2.95652 5.04828 3.12703 5.10501L3.90103 5.36301C3.9295 5.37288 3.95419 5.39138 3.97167 5.41593C3.98914 5.44048 3.99853 5.46987 3.99853 5.50001C3.99853 5.53014 3.98914 5.55953 3.97167 5.58408C3.95419 5.60864 3.9295 5.62714 3.90103 5.63701L3.12703 5.89501C2.95652 5.95173 2.80158 6.04742 2.67451 6.17449C2.54745 6.30156 2.45175 6.4565 2.39503 6.62701L2.13703 7.40001C2.12716 7.42848 2.10866 7.45317 2.08411 7.47064C2.05955 7.48812 2.03016 7.49751 2.00003 7.49751C1.96989 7.49751 1.9405 7.48812 1.91595 7.47064C1.8914 7.45317 1.8729 7.42848 1.86303 7.40001L1.60503 6.62601C1.49003 6.28001 1.21903 6.00901 0.873029 5.89401L0.100029 5.63701L0.0990285 5.63701Z" fill="#1E1E1E"/>
</g>
<defs>
<clipPath id="clip0_6_32">
<rect width="16" height="16" fill="white" transform="translate(0 16.5) rotate(-90)"/>
</clipPath>
</defs>
</svg>
